<?xml version="1.0" encoding="utf-8"?>
<svg viewBox="0 0 500 500" xmlns="http://www.w3.org/2000/svg">
  <path style="stroke: rgb(0, 0, 0); fill: rgb(255, 255, 255); fill-opacity: 0; fill-rule: nonzero;" d="M 131.777 251.274 C 123.202 256.868 114.385 254.332 112.699 242.784 C 108.399 213.328 110.549 178.272 145.65 178.272 C 149.37 178.272 156.184 176.962 159.528 178.272 C 167.678 181.465 173.273 196.44 175.136 203.737 C 177.535 213.138 185.324 233.024 180.34 242.784 C 175.106 253.028 142.344 251.274 133.511 251.274 C 131.223 251.274 125.319 252.286 123.106 249.577 C 116.111 241.019 117.902 229.081 117.902 219.016"/>
  <path style="stroke: rgb(0, 0, 0); fill: rgb(255, 255, 255); fill-opacity: 0; fill-rule: nonzero;" d="M 143.919 213.926 C 150.373 213.926 159.726 233.351 154.324 235.993 C 147.53 239.321 140.449 227.309 140.449 222.412"/>
  <path style="stroke: rgb(0, 0, 0); fill: rgb(255, 255, 255); fill-opacity: 0; fill-rule: nonzero;" d="M 345.106 235.993 C 345.106 217.36 339.65 202.049 352.042 185.063 C 366.414 165.371 391.584 170.456 398.871 191.855 C 403.693 206.015 402.34 221.335 402.34 235.993 C 402.34 239.285 404.462 252.151 400.605 254.67 C 378.816 268.889 350.334 224.184 345.106 208.832"/>
  <path style="stroke: rgb(0, 0, 0); fill: rgb(255, 255, 255); fill-opacity: 0; fill-rule: nonzero;" d="M 367.653 217.318 C 367.653 214.27 372.632 208.611 376.324 212.228 C 378.872 214.72 380.027 233.103 378.058 235.993 C 373.744 242.331 365.215 240.614 362.449 234.298 C 358.279 224.776 360.714 212.187 360.714 202.04"/>
  <path style="stroke: rgb(0, 0, 0); fill: rgb(255, 255, 255); fill-opacity: 0; fill-rule: nonzero;" d="M 90.152 159.597 C 116.968 159.597 142.872 145.811 169.932 151.111 C 177.713 152.633 201.796 157.269 208.087 151.111 C 212.08 147.203 201.784 129.968 201.153 125.644 C 199.909 117.119 199.39 105.245 194.214 100.178 C 190.965 96.997 164.909 100.178 161.263 100.178 C 148.846 100.178 137.485 103.41 126.572 106.97 C 104.735 114.094 71.857 101.108 55.465 117.155 C 52.984 119.583 66.191 132.056 67.605 134.132 C 77.038 147.983 87.912 166.39 100.559 166.39"/>
  <path style="stroke: rgb(0, 0, 0); fill: rgb(255, 255, 255); fill-opacity: 0; fill-rule: nonzero;" d="M 307.746 135.829 C 327.723 142.348 354.186 134.549 373.649 130.739 C 381.904 129.123 386.107 123.946 394.462 123.946 C 402.461 123.946 411.42 125.644 417.009 125.644 C 418.425 125.644 425.348 126.298 425.682 125.644 C 429.56 118.053 425.928 98.963 422.213 91.692 C 410.494 68.744 367.036 88.232 349.37 91.692 C 331.81 95.129 305.953 86.65 293.868 98.481 C 292.78 99.549 293.868 108.915 293.868 110.366 C 293.868 119.236 291.515 142.621 304.276 142.621"/>
  <path style="stroke: rgb(0, 0, 0); fill: rgb(255, 255, 255); fill-opacity: 0; fill-rule: nonzero;" d="M 220.23 405.763 C 280.076 405.763 315.786 368.448 353.776 337.854"/>
  <path style="fill: rgb(216, 216, 216); stroke: rgb(0, 0, 0); fill-opacity: 0; fill-rule: nonzero;" d="M 247.982 91.688 C 247.982 146.659 238.623 197.926 225.435 249.574 C 221.878 263.49 222.581 278.317 218.496 290.318 C 217.682 292.714 214.299 303.187 215.026 303.898 C 216.863 305.697 229.532 303.898 232.37 303.898 C 241.295 303.898 263.563 292.04 268.794 286.923 C 270.827 284.93 280.488 287.361 282.669 285.224 C 284.406 283.523 280.934 280.843 280.934 280.133"/>
</svg>