{
  "accessors": [
    {
      "bufferView": 2,
      "componentType": 5126,
      "count": 3816,
      "max": [
        1.3413410186767578,
        1.1176209449768066,
        1.9395159482955933
      ],
      "min": [
        -1.319944977760315,
        -1.1176209449768066,
        -1.1099330186843872
      ],
      "type": "VEC3"
    },
    {
      "bufferView": 2,
      "byteOffset": 45792,
      "componentType": 5126,
      "count": 3816,
      "max": [
        0.9999831914901733,
        0.9999831914901733,
        1.0
      ],
      "min": [
        -0.9999831914901733,
        -1.0,
        -1.0
      ],
      "type": "VEC3"
    },
    {
      "bufferView": 3,
      "componentType": 5126,
      "count": 3816,
      "max": [
        1.0,
        1.0,
        0.9999991655349731,
        1.0
      ],
      "min": [
        -1.0,
        -1.0,
        -1.0,
        -1.0
      ],
      "type": "VEC4"
    },
    {
      "bufferView": 1,
      "componentType": 5126,
      "count": 3816,
      "max": [
        0.9500470161437988,
        0.9995970129966736
      ],
      "min": [
        0.0004030000127386302,
        0.0004030000127386302
      ],
      "type": "VEC2"
    },
    {
      "bufferView": 0,
      "componentType": 5125,
      "count": 19794,
      "type": "SCALAR"
    }
  ],
  "asset": {
    "extras": {
      "author": "Blender3D (https://sketchfab.com/Blender3D)",
      "license": "CC-BY-4.0 (http://creativecommons.org/licenses/by/4.0/)",
      "source": "https://sketchfab.com/3d-models/simple-present-b7abd8c78d3b4933b043115b2d4f82d5",
      "title": "Simple Present"
    },
    "generator": "Sketchfab-13.12.0",
    "version": "2.0"
  },
  "bufferViews": [
    {
      "buffer": 0,
      "byteLength": 79176,
      "name": "floatBufferViews",
      "target": 34963
    },
    {
      "buffer": 0,
      "byteLength": 30528,
      "byteOffset": 79176,
      "byteStride": 8,
      "name": "floatBufferViews",
      "target": 34962
    },
    {
      "buffer": 0,
      "byteLength": 91584,
      "byteOffset": 109704,
      "byteStride": 12,
      "name": "floatBufferViews",
      "target": 34962
    },
    {
      "buffer": 0,
      "byteLength": 61056,
      "byteOffset": 201288,
      "byteStride": 16,
      "name": "floatBufferViews",
      "target": 34962
    }
  ],
  "buffers": [
    {
      "byteLength": 262344,
      "uri": "scene.bin"
    }
  ],
  "images": [
    {
      "uri": "textures/None_baseColor.jpeg"
    },
    {
      "uri": "textures/None_metallicRoughness.png"
    },
    {
      "uri": "textures/None_normal.jpeg"
    }
  ],
  "materials": [
    {
      "doubleSided": true,
      "name": "None",
      "normalTexture": {
        "index": 2
      },
      "occlusionTexture": {
        "index": 1
      },
      "pbrMetallicRoughness": {
        "baseColorTexture": {
          "index": 0
        },
        "metallicRoughnessTexture": {
          "index": 1
        }
      }
    }
  ],
  "meshes": [
    {
      "name": "Object_0",
      "primitives": [
        {
          "attributes": {
            "NORMAL": 1,
            "POSITION": 0,
            "TANGENT": 2,
            "TEXCOORD_0": 3
          },
          "indices": 4,
          "material": 0,
          "mode": 4
        }
      ]
    }
  ],
  "nodes": [
    {
      "children": [
        1
      ],
      "matrix": [
        1.0,
        0.0,
        0.0,
        0.0,
        0.0,
        2.220446049250313e-16,
        -1.0,
        0.0,
        0.0,
        1.0,
        2.220446049250313e-16,
        0.0,
        0.0,
        0.0,
        0.0,
        1.0
      ],
      "name": "Sketchfab_model"
    },
    {
      "children": [
        2
      ],
      "name": "model_present.obj.cleaner.materialmerger.gles"
    },
    {
      "mesh": 0,
      "name": "Object_2"
    }
  ],
  "samplers": [
    {
      "magFilter": 9729,
      "minFilter": 9987,
      "wrapS": 10497,
      "wrapT": 10497
    }
  ],
  "scene": 0,
  "scenes": [
    {
      "name": "Sketchfab_Scene",
      "nodes": [
        0
      ]
    }
  ],
  "textures": [
    {
      "sampler": 0,
      "source": 0
    },
    {
      "sampler": 0,
      "source": 1
    },
    {
      "sampler": 0,
      "source": 2
    }
  ]
}
